<svg width="36" height="36" viewBox="0 0 36 36" fill="none" xmlns="http://www.w3.org/2000/svg">
<circle cx="18" cy="18" r="18" fill="#2E6A4E"/>
<path d="M26.566 12.7382L28.1366 22.9328C28.1872 23.2613 28.2562 23.4909 28.3436 23.6216C28.4404 23.7509 28.5682 23.8321 28.7271 23.8653L29.1853 23.9388C29.3846 23.985 29.5359 24.0626 29.6392 24.1716C29.7504 24.2698 29.8183 24.3987 29.8429 24.5583C29.8747 24.7648 29.8296 24.9399 29.7076 25.0836C29.5856 25.2274 29.3697 25.3231 29.0599 25.3708L23.0615 26.2949C22.7517 26.3426 22.517 26.3163 22.3574 26.216C22.2072 26.1142 22.1162 25.96 22.0844 25.7535C22.0598 25.5939 22.081 25.4513 22.1482 25.3256C22.2139 25.1906 22.3348 25.0711 22.511 24.967L22.9399 24.7568C23.0814 24.6774 23.1742 24.5622 23.2182 24.4112C23.2622 24.2603 23.2596 24.0252 23.2104 23.7061L22.0542 16.201C22.0152 15.9475 21.9494 15.7703 21.857 15.6692C21.7739 15.5667 21.6497 15.5089 21.4843 15.496L20.9384 15.508C20.7528 15.4885 20.6106 15.4384 20.5116 15.3575C20.4206 15.2658 20.3628 15.1402 20.3382 14.9806C20.3108 14.8023 20.3407 14.6535 20.4281 14.5343C20.514 14.4058 20.6898 14.2682 20.9555 14.1215L23.7573 12.5655C24.1552 12.3409 24.4664 12.1776 24.6909 12.0757C24.9249 11.9724 25.1357 11.9063 25.3235 11.8774C25.6896 11.821 25.977 11.8776 26.1857 12.0473C26.393 12.2075 26.5198 12.4379 26.566 12.7382ZM23.3897 10.4599C22.4979 10.5973 21.7552 10.4859 21.1615 10.1257C20.5679 9.76544 20.2147 9.21923 20.1019 8.48702C19.9891 7.75482 20.1623 7.13232 20.6214 6.61952C21.0806 6.10673 21.756 5.78164 22.6478 5.64425C23.549 5.50542 24.2957 5.61142 24.8879 5.96225C25.4895 6.31163 25.8467 6.85242 25.9595 7.58462C26.0723 8.31683 25.8951 8.94475 25.428 9.46837C24.9703 9.99056 24.2909 10.3211 23.3897 10.4599Z" fill="white"/>
<path d="M15.2977 25.617L15.2522 25.3213L14.8958 25.3474L13.54 16.5469C13.4619 16.0399 13.2691 15.6612 12.9614 15.4107C12.6537 15.1602 12.2652 15.0711 11.7958 15.1434C11.3922 15.2056 11.0828 15.3494 10.8676 15.5747C10.6604 15.7892 10.5778 16.0326 10.6197 16.3048L10.8345 17.6988C10.9372 18.3653 10.7875 18.9217 10.3853 19.3681C9.99114 19.8036 9.37631 20.0857 8.54085 20.2144C7.83681 20.3229 7.28185 20.245 6.87596 19.9808C6.47008 19.7166 6.22448 19.3076 6.13915 18.7537C6.0466 18.1529 6.21292 17.5171 6.63811 16.8461C7.07268 16.1738 7.77193 15.5663 8.73585 15.0238C9.7077 14.4705 10.9634 14.0752 12.5029 13.838C14.3522 13.5532 15.7823 13.698 16.7934 14.2726C17.8045 14.8472 18.4041 15.7447 18.5921 16.965L19.6767 24.0054C19.7099 24.2213 19.7836 24.3878 19.8977 24.5047C20.0198 24.6109 20.1747 24.6495 20.3624 24.6205C20.5502 24.5916 20.6838 24.523 20.7632 24.4146C20.852 24.3049 20.9314 24.1965 21.0014 24.0896C21.0476 24.0153 21.096 23.955 21.1465 23.9087C21.205 23.8517 21.2765 23.8166 21.361 23.8036C21.4924 23.7834 21.5935 23.8158 21.6643 23.901C21.7351 23.9862 21.782 24.1039 21.8052 24.2541C21.8601 24.6108 21.7912 25.0059 21.5985 25.4392C21.4058 25.8725 21.073 26.2697 20.6001 26.6309C20.1257 26.9826 19.5083 27.2171 18.748 27.3342C17.8093 27.4788 17.0225 27.3934 16.3877 27.078C15.7623 26.7611 15.3989 26.2741 15.2977 25.617ZM6.65943 25.7802C6.47143 24.5598 6.86621 23.5044 7.84378 22.6138C8.82928 21.7124 10.3171 21.1084 12.3072 20.8018C12.8892 20.7122 13.408 20.6803 13.8637 20.7062C14.3179 20.7227 14.7122 20.7869 15.0465 20.8987L14.8366 21.969C14.5535 21.878 14.2802 21.8192 14.0166 21.7926C13.753 21.7659 13.4711 21.7757 13.1707 21.822C12.5511 21.9174 12.0905 22.171 11.7887 22.5827C11.4963 22.9929 11.4008 23.5266 11.502 24.1837C11.6032 24.8408 11.8402 25.3184 12.2128 25.6166C12.5855 25.9147 13.0253 26.0247 13.5322 25.9467C13.9171 25.8874 14.2695 25.7418 14.5893 25.5099C14.9185 25.2766 15.1687 24.9978 15.3398 24.6736L15.8068 25.553C15.4351 26.3214 14.847 26.9646 14.0427 27.4825C13.2463 27.9896 12.3647 28.3176 11.3978 28.4666C10.1399 28.6603 9.07366 28.5075 8.19908 28.0079C7.32305 27.499 6.80983 26.7564 6.65943 25.7802Z" fill="white"/>
</svg>
