<svg width="58" height="16" viewBox="0 0 58 16" fill="none" xmlns="http://www.w3.org/2000/svg">
<path d="M55.9694 0.760947V13.7492C55.9694 13.9924 55.9938 14.1661 56.0424 14.2704C56.0911 14.3746 56.1744 14.4476 56.2926 14.4893L56.6053 14.5935C56.7512 14.6491 56.8555 14.7221 56.918 14.8124C56.9806 14.8958 57.0118 14.9966 57.0118 15.1147C57.0118 15.2676 56.9597 15.3892 56.8555 15.4796C56.7512 15.5699 56.5879 15.6151 56.3656 15.6151H51.9145C51.6922 15.6151 51.5288 15.5699 51.4246 15.4796C51.3204 15.3892 51.2682 15.2676 51.2682 15.1147C51.2682 14.9966 51.2995 14.8958 51.3621 14.8124C51.4246 14.7221 51.5288 14.6491 51.6748 14.5935L51.9979 14.4893C52.1091 14.4476 52.189 14.3746 52.2377 14.2704C52.2933 14.1661 52.3211 13.9959 52.3211 13.7596V2.76234C52.3211 2.56776 52.2933 2.43225 52.2377 2.35581C52.1821 2.27242 52.0952 2.21682 51.9771 2.18903L51.581 2.13691C51.4489 2.10216 51.3551 2.04657 51.2995 1.97013C51.2439 1.89368 51.2161 1.79987 51.2161 1.68868C51.2161 1.55664 51.2543 1.4524 51.3308 1.37596C51.4072 1.29257 51.5462 1.20918 51.7477 1.12578L53.9472 0.323141C54.2599 0.198055 54.5066 0.114663 54.6873 0.0729671C54.868 0.0243222 55.0243 0 55.1564 0C55.4274 0 55.6289 0.0729671 55.761 0.218902C55.8999 0.357888 55.9694 0.53857 55.9694 0.760947Z" fill="#2E6A4E"/>
<path d="M46.3758 14.26V14.041L46.1152 14.0202V7.50524C46.1152 7.12998 46.0179 6.83463 45.8233 6.6192C45.6288 6.40377 45.3577 6.29606 45.0103 6.29606C44.7115 6.29606 44.4717 6.36555 44.291 6.50454C44.1173 6.63658 44.0304 6.80336 44.0304 7.00489V8.03686C44.0304 8.53026 43.8602 8.91594 43.5197 9.19392C43.1861 9.46494 42.7101 9.60045 42.0916 9.60045C41.5704 9.60045 41.1777 9.48231 40.9137 9.24604C40.6496 9.00976 40.5176 8.68662 40.5176 8.27661C40.5176 7.83185 40.7087 7.39057 41.0909 6.95277C41.48 6.51496 42.0533 6.1536 42.8108 5.86868C43.5752 5.57681 44.5273 5.43087 45.667 5.43087C47.036 5.43087 48.0541 5.69495 48.7212 6.22309C49.3883 6.75124 49.7219 7.46702 49.7219 8.37042V13.5824C49.7219 13.7422 49.7566 13.8708 49.8261 13.9681C49.9026 14.0584 50.0103 14.1036 50.1493 14.1036C50.2883 14.1036 50.3925 14.0688 50.462 13.9994C50.5384 13.9299 50.6079 13.8604 50.6705 13.7909C50.7122 13.7422 50.7539 13.704 50.7956 13.6762C50.8442 13.6415 50.8998 13.6241 50.9623 13.6241C51.0596 13.6241 51.1291 13.6588 51.1708 13.7283C51.2125 13.7978 51.2334 13.8882 51.2334 13.9994C51.2334 14.2634 51.1396 14.5414 50.9519 14.8333C50.7643 15.1251 50.4794 15.3753 50.0972 15.5838C49.7149 15.7853 49.2424 15.8861 48.6795 15.8861C47.9846 15.8861 47.4252 15.7367 47.0012 15.4379C46.5843 15.139 46.3758 14.7464 46.3758 14.26ZM40.111 13.4156C40.111 12.5122 40.5141 11.793 41.3202 11.2579C42.1333 10.7158 43.2764 10.4448 44.7497 10.4448C45.1805 10.4448 45.5593 10.4795 45.8859 10.549C46.2125 10.6116 46.4905 10.7019 46.7198 10.8201L46.4488 11.5706C46.2542 11.4733 46.0631 11.4003 45.8755 11.3517C45.6878 11.303 45.4828 11.2787 45.2605 11.2787C44.8018 11.2787 44.4404 11.4107 44.1764 11.6748C43.9192 11.9389 43.7907 12.3142 43.7907 12.8006C43.7907 13.2871 43.9088 13.6588 44.1451 13.916C44.3814 14.1731 44.6871 14.3016 45.0624 14.3016C45.3473 14.3016 45.6183 14.2356 45.8755 14.1036C46.1395 13.9716 46.3515 13.7978 46.5113 13.5824L46.7511 14.2704C46.3967 14.7846 45.8998 15.1842 45.2605 15.4691C44.6281 15.7471 43.954 15.8861 43.2382 15.8861C42.307 15.8861 41.553 15.6568 40.9762 15.1981C40.3994 14.7325 40.111 14.1383 40.111 13.4156Z" fill="#2E6A4E"/>
<path d="M39.6213 9.41282C39.6213 9.82283 39.5066 10.1425 39.2773 10.3718C39.0549 10.5942 38.7283 10.7054 38.2974 10.7054H31.9492V9.79851H35.4725C35.8269 9.79851 36.0042 9.63172 36.0042 9.29816C36.0042 8.38085 35.8686 7.70677 35.5976 7.27591C35.3266 6.83811 34.9687 6.6192 34.524 6.6192C34.1904 6.6192 33.8916 6.73039 33.6275 6.95277C33.3704 7.17515 33.1654 7.50524 33.0125 7.94304C32.8596 8.38085 32.7832 8.91942 32.7832 9.55876C32.7832 10.8722 33.082 11.8451 33.6796 12.4775C34.2842 13.1098 35.0938 13.426 36.1084 13.426C36.6574 13.426 37.1438 13.3357 37.5677 13.155C37.9917 12.9674 38.3495 12.672 38.6414 12.269C38.7943 12.1161 38.9124 12.0153 38.9958 11.9667C39.0862 11.9111 39.173 11.8833 39.2564 11.8833C39.3746 11.8833 39.4614 11.9389 39.517 12.0501C39.5726 12.1613 39.6004 12.3003 39.6004 12.467C39.5865 13.0786 39.378 13.6449 38.975 14.1661C38.5719 14.6873 38.0194 15.1043 37.3176 15.417C36.6157 15.7297 35.8061 15.8861 34.8888 15.8861C33.8603 15.8861 32.943 15.6776 32.1369 15.2607C31.3308 14.8437 30.6949 14.2634 30.2293 13.5199C29.7637 12.7693 29.5309 11.8937 29.5309 10.893C29.5309 9.80893 29.7463 8.85688 30.1772 8.03686C30.615 7.20989 31.2439 6.56708 32.0639 6.10843C32.8839 5.64978 33.8672 5.42045 35.0139 5.42045C36.0076 5.42045 36.8485 5.59418 37.5365 5.94165C38.2245 6.28216 38.7422 6.75124 39.0896 7.34888C39.4441 7.94652 39.6213 8.6345 39.6213 9.41282Z" fill="#2E6A4E"/>
<path d="M24.637 13.8534L24.5223 13.8221V2.76234C24.5223 2.56776 24.4945 2.43225 24.4389 2.35581C24.3834 2.27242 24.2965 2.21682 24.1783 2.18903L23.7822 2.13691C23.6502 2.10216 23.5529 2.04657 23.4904 1.97013C23.4348 1.89368 23.407 1.79987 23.407 1.68868C23.407 1.55664 23.4452 1.4524 23.5216 1.37596C23.5981 1.29257 23.7405 1.20918 23.949 1.12578L26.1485 0.323141C26.4473 0.205003 26.687 0.121612 26.8677 0.0729671C27.0484 0.0243222 27.2221 0 27.3889 0C27.646 0 27.8406 0.0729671 27.9727 0.218902C28.1047 0.357888 28.1707 0.53857 28.1707 0.760947V13.7492C28.1707 13.9924 28.195 14.1661 28.2437 14.2704C28.2923 14.3746 28.3757 14.4476 28.4939 14.4893L28.8066 14.5935C28.9525 14.6491 29.0568 14.7221 29.1193 14.8124C29.1818 14.8958 29.2131 14.9966 29.2131 15.1147C29.2131 15.2676 29.161 15.3892 29.0568 15.4796C28.9525 15.5699 28.7857 15.6151 28.5564 15.6151H26.0859C25.6898 15.6151 25.3493 15.4796 25.0644 15.2085C24.7795 14.9306 24.637 14.59 24.637 14.187V13.8534ZM17.1213 10.9556C17.1213 9.83673 17.3472 8.86383 17.7989 8.03686C18.2506 7.20295 18.8621 6.56014 19.6335 6.10843C20.4118 5.64978 21.284 5.42045 22.2499 5.42045C23.0838 5.42045 23.81 5.60461 24.4285 5.97292C25.047 6.33428 25.5717 6.87285 26.0025 7.58863L25.1061 8.24534C24.7864 7.74499 24.4494 7.38015 24.095 7.15083C23.7475 6.91455 23.3688 6.79641 22.9587 6.79641C22.5557 6.79641 22.1978 6.92497 21.8851 7.1821C21.5793 7.43922 21.3361 7.84576 21.1554 8.4017C20.9817 8.95764 20.8948 9.68384 20.8948 10.5803C20.8948 11.4003 20.9817 12.0709 21.1554 12.5921C21.3361 13.1133 21.5758 13.499 21.8747 13.7492C22.1804 13.9994 22.5279 14.1244 22.9171 14.1244C23.3549 14.1244 23.7614 13.9855 24.1367 13.7075C24.5119 13.4295 24.8594 12.9917 25.179 12.3941L25.7628 13.0195C25.1999 13.916 24.5571 14.6178 23.8344 15.1251C23.1186 15.6324 22.3125 15.8861 21.416 15.8861C20.589 15.8861 19.8524 15.6776 19.2061 15.2607C18.5598 14.8437 18.0491 14.2634 17.6738 13.5199C17.3055 12.7763 17.1213 11.9215 17.1213 10.9556Z" fill="#2E6A4E"/>
<path d="M15.848 6.20224V13.7492C15.848 13.9924 15.8723 14.1661 15.921 14.2704C15.9765 14.3746 16.0599 14.4476 16.1711 14.4893L16.4943 14.5935C16.6333 14.6491 16.734 14.7221 16.7966 14.8124C16.8661 14.8958 16.9008 14.9966 16.9008 15.1147C16.9008 15.2676 16.8487 15.3892 16.7444 15.4796C16.6402 15.5699 16.4734 15.6151 16.2441 15.6151H11.8035C11.5742 15.6151 11.4074 15.5699 11.3031 15.4796C11.2059 15.3892 11.1572 15.2676 11.1572 15.1147C11.1572 14.9966 11.1885 14.8958 11.251 14.8124C11.3136 14.7221 11.4143 14.6491 11.5533 14.5935L11.8869 14.4893C11.9981 14.4476 12.078 14.3746 12.1266 14.2704C12.1753 14.1661 12.1996 13.9959 12.1996 13.7596V8.20364C12.1996 8.01601 12.1718 7.8805 12.1162 7.79711C12.0676 7.71372 11.9842 7.65812 11.866 7.63032L11.4699 7.57821C11.3379 7.54346 11.2406 7.49134 11.1781 7.42185C11.1225 7.3454 11.0947 7.24811 11.0947 7.12998C11.0947 6.99794 11.1329 6.8937 11.2093 6.81726C11.2858 6.73387 11.4282 6.65395 11.6367 6.57751L13.8362 5.76444C14.1489 5.6463 14.3921 5.56291 14.5658 5.51426C14.7465 5.46562 14.9064 5.4413 15.0453 5.4413C15.3164 5.4413 15.5179 5.51426 15.6499 5.6602C15.782 5.79919 15.848 5.97987 15.848 6.20224ZM13.8049 4.20085C13.1447 4.20085 12.62 4.03754 12.2309 3.71092C11.8417 3.38431 11.6471 2.94997 11.6471 2.40793C11.6471 1.86588 11.8417 1.43503 12.2309 1.11536C12.62 0.795692 13.1447 0.635859 13.8049 0.635859C14.472 0.635859 15.0002 0.795692 15.3893 1.11536C15.7854 1.43503 15.9835 1.86588 15.9835 2.40793C15.9835 2.94997 15.7854 3.38431 15.3893 3.71092C15.0002 4.03754 14.472 4.20085 13.8049 4.20085Z" fill="#2E6A4E"/>
<path d="M6.26479 14.26V14.041L6.00419 14.0202V7.50524C6.00419 7.12998 5.9069 6.83463 5.71232 6.6192C5.51774 6.40377 5.24672 6.29606 4.89925 6.29606C4.60043 6.29606 4.36068 6.36555 4.18 6.50454C4.00627 6.63658 3.9194 6.80336 3.9194 7.00489V8.03686C3.9194 8.53026 3.74915 8.91594 3.40863 9.19392C3.07506 9.46494 2.59904 9.60045 1.98055 9.60045C1.45935 9.60045 1.06672 9.48231 0.802644 9.24604C0.53857 9.00976 0.406534 8.68662 0.406534 8.27661C0.406534 7.83185 0.597639 7.39057 0.979851 6.95277C1.36901 6.51496 1.94233 6.1536 2.6998 5.86868C3.46422 5.57681 4.41628 5.43087 5.55596 5.43087C6.92497 5.43087 7.94305 5.69495 8.61018 6.22309C9.27731 6.75124 9.61088 7.46702 9.61088 8.37042V13.5824C9.61088 13.7422 9.64562 13.8708 9.71512 13.9681C9.79156 14.0584 9.89927 14.1036 10.0383 14.1036C10.1772 14.1036 10.2815 14.0688 10.351 13.9994C10.4274 13.9299 10.4969 13.8604 10.5595 13.7909C10.6012 13.7422 10.6428 13.704 10.6845 13.6762C10.7332 13.6415 10.7888 13.6241 10.8513 13.6241C10.9486 13.6241 11.0181 13.6588 11.0598 13.7283C11.1015 13.7978 11.1223 13.8882 11.1223 13.9994C11.1223 14.2634 11.0285 14.5414 10.8409 14.8333C10.6533 15.1251 10.3684 15.3753 9.98614 15.5838C9.60393 15.7853 9.13138 15.8861 8.56848 15.8861C7.87355 15.8861 7.31413 15.7367 6.89023 15.4379C6.47327 15.139 6.26479 14.7464 6.26479 14.26ZM0 13.4156C0 12.5122 0.403059 11.793 1.20918 11.2579C2.02225 10.7158 3.1654 10.4448 4.63866 10.4448C5.06951 10.4448 5.44825 10.4795 5.77487 10.549C6.10148 10.6116 6.37945 10.7019 6.60878 10.8201L6.33776 11.5706C6.14318 11.4733 5.95207 11.4003 5.76444 11.3517C5.57681 11.303 5.37181 11.2787 5.14943 11.2787C4.69078 11.2787 4.32941 11.4107 4.06534 11.6748C3.80821 11.9389 3.67965 12.3142 3.67965 12.8006C3.67965 13.2871 3.79779 13.6588 4.03407 13.916C4.27034 14.1731 4.57611 14.3016 4.95137 14.3016C5.2363 14.3016 5.50732 14.2356 5.76444 14.1036C6.02852 13.9716 6.24047 13.7978 6.4003 13.5824L6.64005 14.2704C6.28564 14.7846 5.78876 15.1842 5.14943 15.4691C4.51704 15.7471 3.84296 15.8861 3.12718 15.8861C2.19598 15.8861 1.44198 15.6568 0.865187 15.1981C0.288396 14.7325 0 14.1383 0 13.4156Z" fill="#E3D7C4"/>
</svg>
